<?xml version="1.0" encoding="UTF-8"?>
<!DOCTYPE svg PUBLIC "-//W3C//DTD SVG 1.1//EN" "http://www.w3.org/Graphics/SVG/1.1/DTD/svg11.dtd">
<!-- Creator: CorelDRAW -->
<svg xmlns="http://www.w3.org/2000/svg" xml:space="preserve" width="43.3494mm" height="43.3494mm" version="1.1" style="shape-rendering:geometricPrecision; text-rendering:geometricPrecision; image-rendering:optimizeQuality; fill-rule:evenodd; clip-rule:evenodd"
viewBox="0 0 4334.94 4334.94"
 xmlns:xlink="http://www.w3.org/1999/xlink"
 xmlns:xodm="http://www.corel.com/coreldraw/odm/2003">
 <defs>
  <style type="text/css">
   <![CDATA[
    .fil0 {fill:#101010}
    .fil1 {fill:#EAECEB}
    .fil2 {fill:white}
   ]]>
  </style>
 </defs>
 <g id="Camada_x0020_1">
  <metadata id="CorelCorpID_0Corel-Layer"/>
  <rect class="fil0" x="0.01" y="0.01" width="4334.93" height="4334.93"/>
  <g id="_2425541368400">
   <path class="fil1" d="M3113.08 1274.87c45.5,-80.59 -58.51,-81.89 -123.74,-64.92 -224.02,58.16 -270.85,184.66 -354.75,309.63 -59.19,88.2 -116.67,178 -177.46,270.75 -101.79,155.37 -326.35,408.03 -40.48,337.75 98.34,-24.2 233.06,-246.34 315.6,-351.58 70.04,-89.29 127.18,-166.57 193.16,-254.74l187.67 -246.89z"/>
   <path class="fil1" d="M2216.18 2072.13c35.84,-40.75 71.24,-96.94 90.18,-151.14 -129.91,-48.57 -250,-122.34 -381.58,-181.18 -97.93,-43.8 -305.91,-169.51 -407.59,-165.38 -75.61,125.24 -15.47,111.21 282.25,276.07 84.07,46.56 339.87,202.21 416.74,221.63z"/>
   <path class="fil1" d="M3376.52 2445.29c48.78,-122.44 -56.28,-141.76 -103.42,-41.24 -28.47,60.76 -57.79,139.47 -83.63,205.76 -47.44,121.69 -126.87,279.25 -165.34,399.57 -28.57,89.4 64.2,127.32 105.85,46.49 26.93,-52.29 57.96,-145.55 82.43,-207.4 53.66,-135.61 108.03,-262.31 164.11,-403.18z"/>
   <path class="fil1" d="M1975.74 1710.76c116.29,113.6 259.96,3.21 391.82,-53.63 125.82,-54.2 186.13,-51.13 278.4,-266.79 -72.98,0.72 -596.87,272.15 -670.22,320.42z"/>
   <path class="fil1" d="M2442.21 2479.15c-100.04,-32.98 -92.94,29.15 -173.16,221.52 -21.06,50.56 -125.03,251.13 -82.19,295.88 81.03,84.68 146.81,-158.83 167.77,-209.86 31.43,-76.56 121.75,-224.29 87.58,-307.54z"/>
   <path class="fil1" d="M1777.46 3073.62c94.72,-38.3 -68.44,-202.62 -138.89,-296.28 -92.27,-122.64 -134.18,-208.46 -219.69,-163.74 -17.41,82.09 164.9,269.55 245.46,383.36 32.22,45.5 42.46,80.69 113.12,76.66z"/>
   <path class="fil1" d="M1844.39 2972.41c19.22,-96.63 132.2,-319.35 140.05,-358.95 9.97,-50.17 -9.04,-96.87 -66.32,-78.78 -56.86,17.96 -86.36,161.08 -113.6,221.87 -46.69,104.14 -65.36,158.21 39.87,215.86z"/>
   <path class="fil1" d="M2490.72 2557.01c-84.35,102.53 -25.43,142.85 41.23,222.75 38.44,46.08 110.12,180.02 172.07,166.99 143.6,-30.28 -213.17,-389.64 -213.3,-389.74z"/>
   <path class="fil1" d="M3034.5 2580.83c-33.11,-41.47 -117.35,-179.44 -168.21,-175.79 -127.04,9.08 33.04,183.33 51.13,205.86 46.87,58.47 92.2,131.86 151.29,191.19 93.45,-103.74 23.99,-148.49 -34.21,-221.26z"/>
   <path class="fil1" d="M1246.74 3126.73c111.01,37.99 121.11,-86.66 163.2,-187.32 57.31,-137.08 91.78,-138.76 -17.41,-235.25 -18.67,25.43 -173.81,344.2 -145.79,422.57z"/>
   <path class="fil1" d="M1210.7 3056.62c47.27,-157.8 36.93,-114.93 -52.09,-232.93 -42.91,-56.9 -105.68,-156.81 -166.1,-169.1l-46.72 35.5c6.11,78.24 125.3,197.02 189.78,286.45 22.8,31.61 43.04,64.31 75.13,80.08z"/>
  </g>
  <circle class="fil2" cx="3626.93" cy="2716.58" r="43.35"/>
 </g>
</svg>

