<?xml version="1.0" encoding="UTF-8"?>
<!DOCTYPE svg PUBLIC "-//W3C//DTD SVG 1.1//EN" "http://www.w3.org/Graphics/SVG/1.1/DTD/svg11.dtd">
<!-- Creator: CorelDRAW -->
<svg xmlns="http://www.w3.org/2000/svg" xml:space="preserve" width="27.2449mm" height="19.3247mm" version="1.1" style="shape-rendering:geometricPrecision; text-rendering:geometricPrecision; image-rendering:optimizeQuality; fill-rule:evenodd; clip-rule:evenodd"
viewBox="0 0 3037.97 2154.82"
 xmlns:xlink="http://www.w3.org/1999/xlink"
 xmlns:xodm="http://www.corel.com/coreldraw/odm/2003">
 <defs>
  <style type="text/css">
   <![CDATA[
    .fil0 {fill:#EAECEB}
    .fil1 {fill:white}
   ]]>
  </style>
 </defs>
 <g id="Camada_x0020_1">
  <metadata id="CorelCorpID_0Corel-Layer"/>
  <g id="_2425714299680">
   <path class="fil0" d="M2416.66 82.09c50.74,-89.86 -65.24,-91.3 -137.98,-72.39 -249.8,64.85 -302.01,205.91 -395.57,345.26 -66,98.35 -130.09,198.48 -197.88,301.9 -113.5,173.25 -363.9,454.98 -45.14,376.61 109.65,-26.98 259.88,-274.68 351.91,-392.03 78.1,-99.56 141.81,-185.74 215.38,-284.05l209.26 -275.3z"/>
   <path class="fil0" d="M1416.56 971.08c39.96,-45.44 79.44,-108.09 100.56,-168.53 -144.86,-54.16 -278.76,-136.42 -425.48,-202.03 -109.2,-48.84 -341.11,-189.01 -454.49,-184.41 -84.31,139.65 -17.24,124.01 314.73,307.83 93.74,51.92 378.98,225.48 464.69,247.13z"/>
   <path class="fil0" d="M2710.41 1387.17c54.39,-136.52 -62.76,-158.06 -115.32,-45.97 -31.75,67.75 -64.44,155.52 -93.25,229.43 -52.91,135.69 -141.48,311.38 -184.36,445.54 -31.86,99.69 71.59,141.97 118.02,51.84 30.04,-58.31 64.63,-162.3 91.93,-231.26 59.83,-151.21 120.46,-292.5 182.99,-449.58z"/>
   <path class="fil0" d="M1148.45 568.13c129.67,126.67 289.87,3.58 436.9,-59.79 140.3,-60.45 207.55,-57.02 310.43,-297.49 -81.38,0.79 -665.55,303.46 -747.33,357.28z"/>
   <path class="fil0" d="M1668.6 1424.93c-111.55,-36.77 -103.63,32.5 -193.08,247.01 -23.48,56.38 -139.42,280.02 -91.65,329.92 90.35,94.42 163.7,-177.1 187.07,-234.01 35.05,-85.37 135.76,-250.1 97.66,-342.93z"/>
   <path class="fil0" d="M927.36 2087.8c105.62,-42.71 -76.31,-225.93 -154.87,-330.37 -102.89,-136.75 -149.62,-232.45 -244.97,-182.58 -19.41,91.54 183.87,300.56 273.7,427.46 35.93,50.74 47.35,89.99 126.14,85.49z"/>
   <path class="fil0" d="M1001.99 1974.95c21.43,-107.75 147.41,-356.09 156.16,-400.25 11.12,-55.94 -10.08,-108.02 -73.95,-87.84 -63.4,20.03 -96.3,179.61 -126.66,247.4 -52.07,116.12 -72.89,176.41 44.45,240.7z"/>
   <path class="fil0" d="M1722.69 1511.74c-94.06,114.34 -28.36,159.29 45.97,248.39 42.85,51.38 122.79,200.73 191.87,186.19 160.12,-33.75 -237.7,-434.46 -237.84,-434.58z"/>
   <path class="fil0" d="M2329.03 1538.31c-36.92,-46.24 -130.85,-200.09 -187.56,-196.02 -141.67,10.12 36.84,204.42 57.01,229.55 52.26,65.2 102.81,147.03 168.69,213.18 104.21,-115.67 26.76,-165.56 -38.14,-246.71z"/>
   <path class="fil0" d="M335.59 2147.02c123.77,42.36 135.03,-96.63 181.97,-208.87 63.9,-152.86 102.35,-154.73 -19.41,-262.32 -20.82,28.34 -193.81,383.8 -162.55,471.19z"/>
   <path class="fil0" d="M295.39 2068.85c52.72,-175.96 41.18,-128.15 -58.08,-259.73 -47.84,-63.45 -117.84,-174.85 -185.2,-188.56l-52.11 39.58c6.81,87.24 139.72,219.69 211.62,319.41 25.42,35.25 47.99,71.71 83.77,89.29z"/>
  </g>
  <circle class="fil1" cx="2989.63" cy="1689.68" r="48.34"/>
 </g>
</svg>

